<svg width="40" height="40" viewBox="0 0 40 40" fill="none" xmlns="http://www.w3.org/2000/svg">
<g clip-path="url(#clip0)">
<path d="M10.8367 10.7031H10.3352L9.39789 15.3906H11.774L10.8367 10.7031Z" fill="#F65E5D"/>
<path d="M29.7948 20.0781C30.3009 21.4374 30.9739 22.5377 31.7188 23.474C32.4636 22.5377 33.2148 21.4373 33.7208 20.0781H29.7948Z" fill="#F65E5D"/>
<path d="M36.4844 7.10938H21.931L24.9655 31.4593C25.0192 32.4552 24.7469 33.3929 24.0969 34.127L18.958 40H36.4844C38.423 40 40 38.423 40 36.4844V10.7031C40 8.76453 38.423 7.10938 36.4844 7.10938ZM36.4844 20.0781H36.1714C35.5046 22.2174 34.4472 23.8914 33.3483 25.2111C34.2091 25.9981 35.1297 26.6437 36.0449 27.3669C36.5496 27.7709 36.632 28.5078 36.2269 29.0137C35.8236 29.5187 35.0837 29.6006 34.5801 29.1956C33.5856 28.4107 32.6522 27.7537 31.7187 26.8971C30.7853 27.7537 29.93 28.4107 28.9355 29.1956C28.4319 29.6006 27.692 29.5187 27.2887 29.0137C26.8836 28.5078 26.966 27.7709 27.4707 27.3669C28.3859 26.6437 29.2284 25.9981 30.0892 25.2111C28.9903 23.8915 28.0109 22.2175 27.3442 20.0781H27.0312C26.3835 20.0781 25.8594 19.554 25.8594 18.9062C25.8594 18.2585 26.3835 17.7344 27.0312 17.7344H30.5469V16.5625C30.5469 15.9148 31.071 15.3906 31.7187 15.3906C32.3665 15.3906 32.8906 15.9148 32.8906 16.5625V17.7344H36.4844C37.1321 17.7344 37.6562 18.2585 37.6562 18.9062C37.6562 19.554 37.1321 20.0781 36.4844 20.0781Z" fill="#F65E5D"/>
<path d="M19.0753 3.07961C18.8567 1.32406 17.3564 0 15.5872 0H3.51562C1.57703 0 0 1.57703 0 3.51562V29.4531C0 31.3917 1.57703 32.9688 3.51562 32.9688C10.5211 32.9688 15.5607 32.9688 21.9962 32.9688C22.338 32.578 22.6246 32.3333 22.6367 31.8232C22.6397 31.6953 19.0912 3.20648 19.0753 3.07961ZM14.3706 22.399C13.7492 22.5269 13.1198 22.1234 12.9916 21.48L12.2427 17.7344H8.9293L8.18031 21.48C8.05445 22.114 7.44328 22.5305 6.80133 22.399C6.16734 22.272 5.75531 21.6552 5.88234 21.02L8.22602 9.30125C8.33586 8.75422 8.81656 8.35938 9.375 8.35938H11.7969C12.3553 8.35938 12.836 8.75422 12.9459 9.30125L15.2896 21.02C15.4166 21.6552 15.0047 22.272 14.3706 22.399Z" fill="#F65E5D"/>
<path d="M13.6923 35.3125L13.8934 36.9204C14.0274 37.9972 14.7429 39.0952 15.9198 39.6435C18.1407 37.1987 16.797 38.6777 19.8541 35.3125H13.6923Z" fill="#F65E5D"/>
</g>
<defs>
<clipPath id="clip0">
<rect width="40" height="40" fill="white"/>
</clipPath>
</defs>
</svg>
