<svg width="40" height="38" viewBox="0 0 40 38" fill="none" xmlns="http://www.w3.org/2000/svg">
<path d="M13.1752 24.8033C13.1752 21.0497 18.0428 20.4492 18.0428 18.3814C18.0428 17.4728 17.3396 16.9296 16.4597 16.9296C15.2432 16.9296 14.5829 18.1617 14.5829 18.1617L13.1753 17.2233C13.1753 17.2233 14.128 15.1412 16.6209 15.1412C18.4535 15.1412 20.0079 16.255 20.0079 18.2202C20.0079 21.5631 15.3458 22.135 15.3016 24.1001H20.1691V25.7273H13.2636C13.2194 25.3907 13.1752 25.097 13.1752 24.8033ZM21.2293 21.8855L25.7159 15.3167H27.9592V21.4748H29.3083V23.0448H27.9592V25.7274H26.0968V23.0448H21.2293V21.8855ZM26.0967 21.4748V18.2501C26.0967 17.7368 26.1707 17.1649 26.1707 17.1649H26.1408C26.1408 17.1649 25.9069 17.7212 25.6275 18.1176L23.223 21.4461V21.4748H26.0967ZM35.2794 20.9229L34.9172 22.2206C32.8579 29.5972 25.3437 34.252 17.9106 32.4071C10.7711 30.6352 6.33402 23.7172 7.40095 16.669L9.55219 17.2695C10.0508 17.4088 10.5132 16.9559 10.3844 16.4544L8.04493 7.34466C7.91618 6.84322 7.29291 6.66923 6.92298 7.03145L0.202404 13.612C-0.16753 13.9742 -0.0066154 14.6011 0.492142 14.7403L2.8337 15.394C1.08626 24.928 6.96801 34.4236 16.5662 36.923C26.5327 39.5184 36.6984 33.3493 39.4677 23.4295L39.814 22.1889C39.9139 21.8311 39.7049 21.4602 39.3471 21.3603L36.1081 20.456C35.7503 20.3561 35.3793 20.5652 35.2794 20.9229ZM39.1068 15.2465L35.7101 15.6878C35.3417 15.7356 35.082 16.073 35.1298 16.4414L35.2636 17.4716C35.3115 17.8399 35.6489 18.0997 36.0172 18.0518L39.4139 17.6105C39.7823 17.5627 40.042 17.2253 39.9943 16.8569L39.8603 15.8267C39.8126 15.4584 39.4752 15.1986 39.1068 15.2465ZM36.4919 8.82792L33.5079 10.5096C33.1843 10.6919 33.0698 11.102 33.2522 11.4257L33.7622 12.3307C33.9445 12.6543 34.3547 12.7688 34.6783 12.5865L37.6623 10.9048C37.9859 10.7225 38.1004 10.3124 37.9181 9.98871L37.4081 9.08367C37.2257 8.76008 36.8155 8.64557 36.4919 8.82792ZM31.6631 3.8563L29.5263 6.53328C29.2945 6.82355 29.3421 7.24681 29.6323 7.47845L30.4443 8.12655C30.7346 8.35831 31.1578 8.3108 31.3895 8.02047L33.5263 5.34348C33.7581 5.05316 33.7105 4.62995 33.4202 4.39826L32.6083 3.75015C32.318 3.51852 31.8948 3.56597 31.6631 3.8563ZM25.3235 1.05558L24.345 4.33812C24.2389 4.69407 24.4415 5.06871 24.7974 5.17479L25.793 5.47152C26.1489 5.57767 26.5235 5.37505 26.6297 5.01917L27.6081 1.73663C27.7142 1.38068 27.5116 1.0061 27.1557 0.89996L26.1601 0.603229C25.8042 0.497085 25.4295 0.699634 25.3235 1.05558ZM18.3963 0.833686L18.7187 4.24375C18.7537 4.61355 19.0818 4.88499 19.4516 4.85002L20.4858 4.75218C20.8556 4.71721 21.1271 4.3891 21.0921 4.0193L20.7696 0.609242C20.7346 0.239438 20.4065 -0.0319339 20.0367 0.00303334L19.0025 0.100811C18.6328 0.135778 18.3613 0.463882 18.3963 0.833686ZM11.8904 3.22296L13.4668 6.26387C13.6377 6.59361 14.0437 6.72237 14.3735 6.55139L15.2958 6.07335C15.6255 5.90237 15.7543 5.49649 15.5833 5.16669L14.0069 2.12578C13.836 1.79604 13.43 1.66728 13.1002 1.83826L12.1779 2.31636C11.8482 2.48721 11.7195 2.89316 11.8904 3.22296Z" fill="#2D9CDB"/>
</svg>
