<svg width="40" height="40" viewBox="0 0 40 40" fill="none" xmlns="http://www.w3.org/2000/svg">
<path d="M10.6995 18.5796L8.44244 22.858H12.9708L10.6995 18.5796Z" fill="#2D9CDB"/>
<path d="M0.714251 31.429H2.14275C2.53722 31.429 2.857 31.7488 2.857 32.1433V37.143L10.2852 31.5719C10.5523 31.3676 9.90952 31.429 19.999 31.429C20.3935 31.429 20.7133 31.1092 20.7133 30.7148V15.0012C20.7133 14.6068 20.3935 14.287 19.999 14.287H0.714251C0.319781 14.287 0 14.6068 0 15.0012V30.7148C0 31.1092 0.319781 31.429 0.714251 31.429ZM4.37122 27.5221L9.46383 17.9154C9.70146 17.4431 10.185 17.145 10.7138 17.145C11.2425 17.145 11.7261 17.4431 11.9637 17.9154L17.0563 27.5221C17.174 27.7431 17.1674 28.0097 17.0387 28.2246C16.9101 28.4395 16.6782 28.5713 16.4278 28.572C16.164 28.5732 15.9215 28.4272 15.7992 28.1935L13.7279 24.2865H7.69249L5.6283 28.1935C5.519 28.4369 5.28308 28.5992 5.01661 28.6141C4.75014 28.629 4.49759 28.4941 4.3618 28.2644C4.22601 28.0346 4.22964 27.7483 4.37122 27.5221V27.5221Z" fill="#2D9CDB"/>
<path d="M39.2838 17.1439H22.1418V30.7147C22.1383 31.8966 21.181 32.8539 19.999 32.8574H19.2848V33.5717C19.2848 33.9662 19.6046 34.2859 19.999 34.2859C30.0657 34.2859 29.445 34.2245 29.7129 34.4288L37.1411 40V35.0002C37.1433 34.6283 37.4278 34.3191 37.7982 34.2859H39.2838C39.6783 34.2859 39.9981 33.9662 39.9981 33.5717V17.8582C39.9981 17.4637 39.6783 17.1439 39.2838 17.1439ZM34.9983 32.1432C34.6039 32.1432 34.2841 31.8234 34.2841 31.4289C34.3721 30.3471 34.1172 29.265 33.5555 28.3362C33.3698 31.6361 31.2699 32.1432 29.9986 32.1432C28.1273 32.2348 26.5326 30.7996 26.4273 28.9291C26.497 27.3282 27.6978 26.0044 29.2843 25.7792V22.1437H27.1416C26.7471 22.1437 26.4273 21.8239 26.4273 21.4294C26.4273 21.035 26.7471 20.7152 27.1416 20.7152H29.2843V20.0009C29.2843 19.6065 29.6041 19.2867 29.9986 19.2867C30.393 19.2867 30.7128 19.6065 30.7128 20.0009V20.7152H32.8556C33.25 20.7152 33.5698 21.035 33.5698 21.4294C33.5698 21.8239 33.25 22.1437 32.8556 22.1437H30.7128V25.7435C32.3556 25.8149 32.1413 26.0792 32.1413 25.7149C32.1413 25.3205 32.4611 25.0007 32.8556 25.0007C33.25 25.0007 33.5698 25.3205 33.5698 25.7149V26.4578C34.834 27.2006 35.7126 28.6505 35.7126 31.4289C35.7126 31.8234 35.3928 32.1432 34.9983 32.1432Z" fill="#2D9CDB"/>
<path d="M30.7128 30.629C32.062 30.2626 32.1413 28.7556 32.1413 27.3863C31.6759 27.2546 31.1962 27.1803 30.7128 27.1649V30.629Z" fill="#2D9CDB"/>
<path d="M28.57 15.7154V9.28716C28.57 8.53006 25.3131 7.14441 19.999 7.14441C14.685 7.14441 11.428 8.53006 11.428 9.28716V12.8584H19.999C21.181 12.8619 22.1382 13.8192 22.1418 15.0012V15.7154H28.57Z" fill="#2D9CDB"/>
<path d="M9.99951 9.2872C9.99951 4.52743 29.9985 4.51957 29.9985 9.2872V10.3871L37.1411 7.73727V13.3013C37.1411 13.6958 37.4608 14.0155 37.8553 14.0155C38.2498 14.0155 38.5696 13.6958 38.5696 13.3013V7.20159L39.9052 6.70875L20.249 0.0447886C19.8776 -0.0844908 21.049 -0.392333 0.0928497 6.69447L9.99951 10.3729V9.2872Z" fill="#2D9CDB"/>
<path d="M29.2843 30.6076V27.2506C27.3858 27.8234 27.383 30.0341 29.2843 30.6076Z" fill="#2D9CDB"/>
</svg>
