<svg width="40" height="40" viewBox="0 0 40 40" fill="none" xmlns="http://www.w3.org/2000/svg">
<path d="M20 15.6481C24.3137 15.6481 27.823 12.1387 27.823 7.82506C27.823 3.51139 24.3137 0.00189209 20 0.00189209C15.6863 0.00189209 12.177 3.51139 12.177 7.82506C12.177 12.1387 15.6863 15.6481 20 15.6481ZM16.2158 6.9891C16.6776 6.52755 17.4259 6.52755 17.8877 6.9891L19.0172 8.11879L22.1123 5.02358C22.5741 4.56203 23.3224 4.56203 23.7842 5.02358C24.2459 5.48526 24.2459 6.23381 23.7842 6.6955L19.8532 10.6265C19.6224 10.8572 19.3199 10.9728 19.0172 10.9728C18.7146 10.9728 18.4121 10.8574 18.1813 10.6265L16.2158 8.66102C15.7541 8.19933 15.7541 7.45065 16.2158 6.9891Z" fill="#2D9CDB"/>
<path d="M4.60135 11.4302C7.13859 11.4302 9.20283 9.36595 9.20283 6.82872C9.20283 4.29148 7.13859 2.22723 4.60135 2.22723C2.06411 2.22723 0 4.29148 0 6.82872C0 9.36595 2.06411 11.4302 4.60135 11.4302Z" fill="#2D9CDB"/>
<path d="M0.453461 18.0171V27.5734C0.453461 29.7682 2.23272 31.5475 4.4276 31.5475H9.607V38.6057C9.607 39.1433 10.0428 39.5793 10.5806 39.5793H15.1701C15.7077 39.5793 16.1437 39.1435 16.1437 38.6057V28.4245C16.1437 26.5717 14.6417 25.0699 12.7891 25.0699H8.74935V18.0171C8.74935 15.7264 6.89225 13.8693 4.60148 13.8693C2.31057 13.8691 0.453461 15.7262 0.453461 18.0171Z" fill="#2D9CDB"/>
<path d="M35.3987 11.4302C37.9359 11.4302 40 9.36595 40 6.82872C40 4.29148 37.9359 2.22723 35.3987 2.22723C32.8614 2.22723 30.7972 4.29148 30.7972 6.82872C30.7972 9.36595 32.8614 11.4302 35.3987 11.4302Z" fill="#2D9CDB"/>
<path d="M31.2506 18.0171V25.0699H27.211C25.3582 25.0699 23.8563 26.5719 23.8563 28.4245V38.6057C23.8563 39.1433 24.2921 39.5793 24.8299 39.5793H29.4194C29.957 39.5793 30.393 39.1435 30.393 38.6057V31.5475H35.5724C37.7673 31.5475 39.5465 29.7682 39.5465 27.5734V18.0171C39.5465 15.7264 37.6894 13.8693 35.3986 13.8693C33.1077 13.8691 31.2506 15.7262 31.2506 18.0171Z" fill="#2D9CDB"/>
<path d="M26.8843 20.4462C27.5372 20.4462 28.0664 19.9169 28.0664 19.2641C28.0664 18.6112 27.5371 18.082 26.8843 18.082H13.1157C12.4628 18.082 11.9336 18.6113 11.9336 19.2641C11.9336 19.917 12.4629 20.4462 13.1157 20.4462H18.8178V38.8159C18.8178 39.4688 19.3471 39.998 19.9999 39.998C20.6527 39.998 21.1819 39.4687 21.1819 38.8159V20.4462H26.8843Z" fill="#2D9CDB"/>
</svg>
