<svg width="40" height="40" viewBox="0 0 40 40" fill="none" xmlns="http://www.w3.org/2000/svg">
<path d="M6.02417 31.38H4.30969C1.93329 31.38 0 33.3136 0 35.69V38.8281C0 39.4754 0.524597 40 1.17188 40H6.22589C6.09558 39.6332 6.02417 39.2389 6.02417 38.8281V31.38Z" fill="#2D9CDB"/>
<path d="M14.3921 25.1041H12.6779C10.3015 25.1041 8.36792 27.0377 8.36792 29.4141V38.8281C8.36792 39.4754 8.89252 40 9.53979 40H14.5938C14.4638 39.6332 14.3921 39.2389 14.3921 38.8281V25.1041Z" fill="#2D9CDB"/>
<path d="M39.7699 11.7712L31.4017 0.474243C31.1804 0.176086 30.8313 0 30.4599 0C30.0885 0 29.7391 0.176086 29.5181 0.474243L21.1502 11.7712C20.8868 12.1268 20.8463 12.6007 21.0452 12.9959C21.2445 13.3911 21.6492 13.6407 22.092 13.6407H25.1041V38.8281C25.1041 39.4754 25.6287 40 26.2759 40H34.6439C35.2911 40 35.8157 39.4754 35.8157 38.8281V13.6407H38.8281C39.2706 13.6407 39.6756 13.3911 39.8746 12.9959C40.0739 12.6007 40.0333 12.1268 39.7699 11.7712Z" fill="#2D9CDB"/>
<path d="M22.7603 18.8281H21.0458C18.6694 18.8281 16.7358 20.7614 16.7358 23.1378V38.8281C16.7358 39.4754 17.2607 40 17.9077 40H22.9617C22.8317 39.6332 22.7603 39.2389 22.7603 38.8281V18.8281Z" fill="#2D9CDB"/>
</svg>
