<svg width="40" height="40" viewBox="0 0 40 40" fill="none" xmlns="http://www.w3.org/2000/svg">
<path d="M39.9513 18.6192C39.2759 8.7082 31.2925 0.724072 21.3808 0.0480048L20.6687 0V19.3313H40L39.9513 18.6192Z" fill="#2D9CDB"/>
<path d="M34.2287 34.0641L34.6995 33.5534C37.7784 30.2144 39.644 25.8899 39.9513 21.3768L40 20.6647H20.8301L34.2287 34.0641Z" fill="#2D9CDB"/>
<path d="M16.6683 2.98897V21.0554V22.1602L17.4497 22.9416L29.1963 34.6875C26.454 36.405 23.2597 37.3331 20.002 37.3331C10.4437 37.3331 2.66693 29.5563 2.66693 19.998C2.66693 11.6478 8.66487 4.55312 16.6683 2.98897ZM19.3353 0L18.6232 0.0480048C8.18015 0.760743 0 9.52295 0 19.998C0 31.0271 8.9729 40 20.002 40C24.6205 40 29.1276 38.3832 32.6946 35.4489L33.262 34.9822L19.3353 21.0554V0Z" fill="#2D9CDB"/>
</svg>
