<svg xmlns="http://www.w3.org/2000/svg" width="95" height="33" viewBox="0 0 95 33"><defs><mask id="vp00b" width="2" height="2.01" x="-1" y="-1"><path fill="#fff" d="M5.9 1.9h89.2v28.2H5.9z"/><path d="M16.719 2.906h67.5c5.523 0 10 4.477 10 10v7c0 5.523-4.477 10-10 10h-67.5c-5.523 0-10-4.477-10-10v-7c0-5.523 4.477-10 10-10z"/></mask><filter id="vp00a" width="118" height="54.1" x="-10" y="-11.1" filterUnits="userSpaceOnUse"><feOffset dx="-3" dy="-.1" in="SourceGraphic" result="FeOffset1023Out"/><feGaussianBlur in="FeOffset1023Out" result="FeGaussianBlur1024Out" stdDeviation="1.16 1.16"/></filter><linearGradient id="vp00c" x1="94.72" x2="6.72" y1="16.91" y2="15.91" gradientUnits="userSpaceOnUse"><stop offset="0" stop-color="#015eea"/><stop offset="1" stop-color="#00c0fa"/></linearGradient></defs><g><g><g filter="url(#vp00a)"><path fill="none" stroke="#554646" stroke-opacity=".46" stroke-width=".2" d="M16.719 2.906h67.5c5.523 0 10 4.477 10 10v7c0 5.523-4.477 10-10 10h-67.5c-5.523 0-10-4.477-10-10v-7c0-5.523 4.477-10 10-10z" mask="url(&quot;#vp00b&quot;)"/><path fill="#554646" fill-opacity=".46" d="M16.719 2.906h67.5c5.523 0 10 4.477 10 10v7c0 5.523-4.477 10-10 10h-67.5c-5.523 0-10-4.477-10-10v-7c0-5.523 4.477-10 10-10z"/></g><path d="M16.719 2.906h67.5c5.523 0 10 4.477 10 10v7c0 5.523-4.477 10-10 10h-67.5c-5.523 0-10-4.477-10-10v-7c0-5.523 4.477-10 10-10z"/><path fill="url(#vp00c)" d="M16.719 2.906h67.5c5.523 0 10 4.477 10 10v7c0 5.523-4.477 10-10 10h-67.5c-5.523 0-10-4.477-10-10v-7c0-5.523 4.477-10 10-10z"/></g></g></svg>